<svg width="24" height="24" viewBox="0 0 24 24" fill="none" xmlns="http://www.w3.org/2000/svg">
<path d="M2.81656 14.2254C2.27184 13.1384 2 12.5938 2 12C2 11.4062 2.27184 10.8627 2.81656 9.77574L4.2046 7L5.67297 4.27574C6.24857 3.20824 6.53586 2.67391 6.9982 2.37643C7.46157 2.08009 8.0207 2.07094 9.13999 2.05034L11.9995 2L14.8569 2.05034C15.9772 2.07094 16.5364 2.08009 16.9987 2.37757C17.4611 2.67506 17.7504 3.20824 18.325 4.27574L19.7944 7L21.1845 9.77574C21.7282 10.8627 22 11.4062 22 12C22 12.5938 21.7282 13.1373 21.1834 14.2243L19.7944 17L18.326 19.7243C17.7504 20.7918 17.4631 21.3261 17.0008 21.6236C16.5374 21.9199 15.9783 21.9291 14.859 21.9497L11.9995 22L9.14205 21.9497C8.02173 21.9291 7.4626 21.9199 7.00026 21.6224C6.53792 21.3249 6.24857 20.7918 5.67399 19.7243L4.2046 17L2.81656 14.2254Z" stroke="black" stroke-width="2"/>
<path d="M11.9995 15.4325C13.7056 15.4325 15.0886 13.8957 15.0886 12C15.0886 10.1043 13.7056 8.5675 11.9995 8.5675C10.2934 8.5675 8.91037 10.1043 8.91037 12C8.91037 13.8957 10.2934 15.4325 11.9995 15.4325Z" stroke="black" stroke-width="2"/>
</svg>
