<svg width="26" height="24" viewBox="0 0 26 24" fill="none" xmlns="http://www.w3.org/2000/svg">
<path d="M17.9476 18C16.7757 18 15.8361 18.89 15.8361 20C15.8361 20.5304 16.0586 21.0391 16.4546 21.4142C16.8505 21.7893 17.3876 22 17.9476 22C18.5076 22 19.0446 21.7893 19.4406 21.4142C19.8366 21.0391 20.0591 20.5304 20.0591 20C20.0591 19.4696 19.8366 18.9609 19.4406 18.5858C19.0446 18.2107 18.5076 18 17.9476 18ZM1.05579 2V4H3.16726L6.96792 11.59L5.53211 14.04C5.37375 14.32 5.27874 14.65 5.27874 15C5.27874 15.5304 5.5012 16.0391 5.89717 16.4142C6.29315 16.7893 6.83021 17 7.39021 17H20.0591V15H7.83362C7.76362 15 7.69649 14.9737 7.64699 14.9268C7.5975 14.8799 7.56969 14.8163 7.56969 14.75C7.56969 14.7 7.58025 14.66 7.60136 14.63L8.55152 13H16.4168C17.2086 13 17.9054 12.58 18.2643 11.97L22.0439 5.5C22.1178 5.34 22.1705 5.17 22.1705 5C22.1705 4.73478 22.0593 4.48043 21.8613 4.29289C21.6633 4.10536 21.3948 4 21.1148 4H5.50044L4.50805 2M7.39021 18C6.21834 18 5.27874 18.89 5.27874 20C5.27874 20.5304 5.5012 21.0391 5.89717 21.4142C6.29315 21.7893 6.83021 22 7.39021 22C7.95021 22 8.48727 21.7893 8.88325 21.4142C9.27923 21.0391 9.50169 20.5304 9.50169 20C9.50169 19.4696 9.27923 18.9609 8.88325 18.5858C8.48727 18.2107 7.95021 18 7.39021 18Z" fill="white"/>
</svg>
