<svg width="19" height="17" viewBox="0 0 19 17" fill="none" xmlns="http://www.w3.org/2000/svg">
<path fill-rule="evenodd" clip-rule="evenodd" d="M5.42857 6.8H1.35714C0.997206 6.8 0.652012 6.65671 0.397498 6.40167C0.142984 6.14662 0 5.80069 0 5.44V1.36C0 0.999306 0.142984 0.653384 0.397498 0.398335C0.652012 0.143285 0.997206 0 1.35714 0H5.42857C5.78851 0 6.1337 0.143285 6.38822 0.398335C6.64273 0.653384 6.78571 0.999306 6.78571 1.36V5.44C6.78571 5.80069 6.64273 6.14662 6.38822 6.40167C6.1337 6.65671 5.78851 6.8 5.42857 6.8ZM10.8571 1.02C10.5872 1.02 10.3283 1.12746 10.1374 1.31875C9.94652 1.51004 9.83929 1.76948 9.83929 2.04C9.83929 2.31052 9.94652 2.56996 10.1374 2.76125C10.3283 2.95254 10.5872 3.06 10.8571 3.06H11.875V12.527C12.3667 12.045 12.9929 11.7241 13.6707 11.6068C14.3484 11.4895 15.0457 11.5813 15.6703 11.8701C16.2948 12.1588 16.8171 12.6308 17.1679 13.2237C17.5187 13.8165 17.6815 14.5022 17.6347 15.1898C18.4856 14.8906 19 14.0162 19 12.92C19 10.2993 16.8557 7.99544 13.9107 7.82952V6.52664C14.2093 6.70072 14.5581 6.8 14.9286 6.8H16.2857C16.4657 6.8 16.6383 6.72836 16.7655 6.60083C16.8928 6.47331 16.9643 6.30035 16.9643 6.12V3.4C16.9643 3.21965 16.8928 3.04669 16.7655 2.91917C16.6383 2.79164 16.4657 2.72 16.2857 2.72H14.9286C14.5581 2.72 14.2093 2.81928 13.9107 2.992V2.04C13.9107 1.76948 13.8035 1.51004 13.6126 1.31875C13.4217 1.12746 13.1628 1.02 12.8929 1.02H10.8571ZM10.8707 15.3C10.799 14.5911 10.9514 13.8775 11.3064 13.26H11.1964C10.9265 13.26 10.6676 13.1525 10.4767 12.9612C10.2858 12.77 10.1786 12.5105 10.1786 12.24V11.56C10.1786 11.0689 10.082 10.5825 9.89448 10.1288C9.70692 9.67501 9.43201 9.26271 9.08545 8.91542C8.73889 8.56813 8.32746 8.29264 7.87466 8.10469C7.42185 7.91674 6.93654 7.82 6.44643 7.82H3.73214C2.74232 7.82 1.79303 8.21403 1.09312 8.91542C0.393207 9.61681 0 10.5681 0 11.56L0 14.28C0 14.843 0.456 15.3 1.01786 15.3H1.37071C1.32335 14.8271 1.37543 14.3494 1.52359 13.8979C1.67175 13.4464 1.91271 13.031 2.23091 12.6785C2.54912 12.326 2.93752 12.0443 3.37106 11.8514C3.80459 11.6586 4.27365 11.559 4.74796 11.559C5.22228 11.559 5.69133 11.6586 6.12487 11.8514C6.55841 12.0443 6.94681 12.326 7.26501 12.6785C7.58322 13.031 7.82418 13.4464 7.97234 13.8979C8.1205 14.3494 8.17258 14.8271 8.12521 15.3H10.8707ZM2.71157 14.9586C2.71157 15.5 2.92619 16.0193 3.30822 16.4021C3.69024 16.7849 4.20838 17 4.74864 17C5.28891 17 5.80704 16.7849 6.18907 16.4021C6.57109 16.0193 6.78571 15.5 6.78571 14.9586C6.78571 14.4172 6.57109 13.898 6.18907 13.5152C5.80704 13.1324 5.28891 12.9173 4.74864 12.9173C4.20838 12.9173 3.69024 13.1324 3.30822 13.5152C2.92619 13.898 2.71157 14.4172 2.71157 14.9586ZM12.2116 14.9586C12.2116 15.5 12.4262 16.0193 12.8082 16.4021C13.1902 16.7849 13.7084 17 14.2486 17C14.7889 17 15.307 16.7849 15.6891 16.4021C16.0711 16.0193 16.2857 15.5 16.2857 14.9586C16.2857 14.4172 16.0711 13.898 15.6891 13.5152C15.307 13.1324 14.7889 12.9173 14.2486 12.9173C13.7084 12.9173 13.1902 13.1324 12.8082 13.5152C12.4262 13.898 12.2116 14.4172 12.2116 14.9586Z" fill="#757575"/>
</svg>
