<svg width="30" height="30" viewBox="0 0 30 30" fill="none" xmlns="http://www.w3.org/2000/svg">
<path fill-rule="evenodd" clip-rule="evenodd" d="M13.7661 1.45138C14.0552 1.16236 14.4473 1 14.8561 1C15.2649 1 15.6569 1.16236 15.946 1.45138L25.196 10.7014L28.2794 13.7847C28.5602 14.0755 28.7156 14.4649 28.7121 14.8691C28.7085 15.2733 28.5464 15.66 28.2606 15.9458C27.9747 16.2317 27.5881 16.3938 27.1838 16.3973C26.7796 16.4008 26.3902 16.2455 26.0994 15.9646L25.6477 15.5129V25.6663C25.6477 26.4841 25.3229 27.2683 24.7446 27.8466C24.1664 28.4248 23.3821 28.7497 22.5644 28.7497H17.9394C17.5305 28.7497 17.1384 28.5872 16.8493 28.2981C16.5601 28.009 16.3977 27.6169 16.3977 27.208V22.583H13.3144V27.208C13.3144 27.6169 13.152 28.009 12.8628 28.2981C12.5737 28.5872 12.1816 28.7497 11.7727 28.7497H7.14772C6.32997 28.7497 5.54571 28.4248 4.96748 27.8466C4.38924 27.2683 4.06439 26.4841 4.06439 25.6663V15.5129L3.61268 15.9646C3.32192 16.2455 2.93249 16.4008 2.52827 16.3973C2.12405 16.3938 1.73738 16.2317 1.45154 15.9458C1.16571 15.66 1.00357 15.2733 1.00006 14.8691C0.996546 14.4649 1.15194 14.0755 1.43276 13.7847L4.5161 10.7014L13.7661 1.45138Z" stroke="black" stroke-width="1.5"/>
</svg>
