<svg width="28" height="28" viewBox="0 0 28 28" fill="none" xmlns="http://www.w3.org/2000/svg">
<path fill-rule="evenodd" clip-rule="evenodd" d="M12.7661 0.451379C13.0552 0.162361 13.4473 0 13.8561 0C14.2649 0 14.6569 0.162361 14.946 0.451379L24.196 9.70138L27.2794 12.7847C27.5602 13.0755 27.7156 13.4649 27.7121 13.8691C27.7085 14.2733 27.5464 14.66 27.2606 14.9458C26.9747 15.2317 26.5881 15.3938 26.1838 15.3973C25.7796 15.4008 25.3902 15.2455 25.0994 14.9646L24.6477 14.5129V24.6663C24.6477 25.4841 24.3229 26.2683 23.7446 26.8466C23.1664 27.4248 22.3821 27.7497 21.5644 27.7497H16.9394C16.5305 27.7497 16.1384 27.5872 15.8493 27.2981C15.5601 27.009 15.3977 26.6169 15.3977 26.208V21.583H12.3144V26.208C12.3144 26.6169 12.152 27.009 11.8628 27.2981C11.5737 27.5872 11.1816 27.7497 10.7727 27.7497H6.14772C5.32997 27.7497 4.54571 27.4248 3.96748 26.8466C3.38924 26.2683 3.06439 25.4841 3.06439 24.6663V14.5129L2.61268 14.9646C2.32192 15.2455 1.93249 15.4008 1.52827 15.3973C1.12405 15.3938 0.737381 15.2317 0.451544 14.9458C0.165706 14.66 0.00357084 14.2733 5.82791e-05 13.8691C-0.00345428 13.4649 0.151937 13.0755 0.432764 12.7847L3.5161 9.70138L12.7661 0.451379Z" fill="black"/>
</svg>
