<svg width="31" height="31" viewBox="0 0 31 31" fill="none" xmlns="http://www.w3.org/2000/svg">
<path fill-rule="evenodd" clip-rule="evenodd" d="M14.4101 2.07671C14.6992 1.7877 15.0912 1.62534 15.5 1.62534C15.9088 1.62534 16.3009 1.7877 16.59 2.07671L25.84 11.3267L28.9233 14.41C29.2041 14.7008 29.3595 15.0902 29.356 15.4945C29.3525 15.8987 29.1904 16.2853 28.9045 16.5712C28.6187 16.857 28.232 17.0192 27.8278 17.0227C27.4236 17.0262 27.0341 16.8708 26.7434 16.59L26.2917 16.1383V26.2917C26.2917 27.1094 25.9668 27.8937 25.3886 28.4719C24.8104 29.0502 24.0261 29.375 23.2083 29.375H18.5833C18.1745 29.375 17.7823 29.2126 17.4932 28.9235C17.2041 28.6343 17.0417 28.2422 17.0417 27.8333V23.2083H13.9583V27.8333C13.9583 28.2422 13.7959 28.6343 13.5068 28.9235C13.2177 29.2126 12.8256 29.375 12.4167 29.375H7.79167C6.97392 29.375 6.18967 29.0502 5.61143 28.4719C5.03319 27.8937 4.70834 27.1094 4.70834 26.2917V16.1383L4.25663 16.59C3.96587 16.8708 3.57644 17.0262 3.17222 17.0227C2.768 17.0192 2.38133 16.857 2.0955 16.5712C1.80966 16.2853 1.64752 15.8987 1.64401 15.4945C1.6405 15.0902 1.79589 14.7008 2.07672 14.41L5.16005 11.3267L14.4101 2.07671Z" stroke="black" stroke-width="1.5"/>
</svg>
