<svg width="30" height="30" viewBox="0 0 30 30" fill="none" xmlns="http://www.w3.org/2000/svg">
<path fill-rule="evenodd" clip-rule="evenodd" d="M15 2.50003C16.6415 2.50002 18.267 2.82334 19.7836 3.45152C21.3001 4.0797 22.6781 5.00044 23.8389 6.16117C24.9996 7.3219 25.9203 8.69989 26.5485 10.2165C27.1767 11.733 27.5 13.3585 27.5 15C27.5 21.9036 21.9036 27.5001 15 27.5001C8.09649 27.5001 2.50002 21.9036 2.50002 15C2.50002 8.0965 8.09649 2.50003 15 2.50003ZM16.25 16.2501H13.75C10.6554 16.2501 7.99858 18.1243 6.85266 20.7997C8.66578 23.3422 11.6393 25 15 25C18.3607 25 21.3342 23.3422 23.1474 20.7996C22.0015 18.1243 19.3447 16.2501 16.25 16.2501ZM15 6.25003C12.9289 6.25003 11.25 7.92898 11.25 10C11.25 12.0711 12.9289 13.75 15 13.75C17.0711 13.75 18.75 12.0711 18.75 10C18.75 7.92898 17.0711 6.25003 15 6.25003Z" fill="black"/>
</svg>
