<svg width="28" height="28" viewBox="0 0 28 28" fill="none" xmlns="http://www.w3.org/2000/svg">
<path fill-rule="evenodd" clip-rule="evenodd" d="M8.76996 1.41667C9.16663 0.580833 10.0209 0 11.0111 0H16.6778C17.6666 0 18.5209 0.580833 18.919 1.41667C19.8865 1.42517 20.6416 1.46908 21.316 1.73258C22.1209 2.04747 22.821 2.5826 23.3361 3.27675C23.856 3.97517 24.0997 4.87333 24.4355 6.10725L24.4879 6.29992L25.3237 9.36983C25.881 9.65101 26.3695 10.0515 26.7545 10.5428C27.6357 11.6719 27.7915 13.0163 27.6357 14.5577C27.4827 16.0537 27.0124 17.9378 26.423 20.2966L26.3848 20.4453C26.0122 21.9371 25.709 23.1483 25.3506 24.0932C24.9738 25.0792 24.4978 25.8867 23.7115 26.5002C22.9267 27.1136 22.0271 27.3785 20.9802 27.506C19.9758 27.625 18.7277 27.625 17.1906 27.625H10.4983C8.96121 27.625 7.71171 27.625 6.70871 27.5046C5.66038 27.3799 4.76221 27.1136 3.97596 26.4987C3.19113 25.8867 2.71513 25.0792 2.33829 24.0932C1.97846 23.1483 1.67671 21.9371 1.30413 20.4453L1.26588 20.2966C0.676543 17.9378 0.204793 16.0537 0.0532093 14.5591C-0.102624 13.0149 0.053209 11.6719 0.932959 10.5428C1.33388 10.03 1.81413 9.65033 2.36379 9.36983L3.19963 6.29992L3.25346 6.10725C3.58921 4.87333 3.83288 3.97517 4.35279 3.27533C4.86807 2.58171 5.56814 2.04708 6.37296 1.73258C7.04729 1.46908 7.80096 1.42375 8.76996 1.41667ZM8.77138 3.54592C7.83354 3.55583 7.45813 3.59125 7.14646 3.71308C6.71291 3.88263 6.33586 4.17082 6.05846 4.54467C5.80913 4.88042 5.66179 5.34933 5.25096 6.86092L4.74946 8.69692C6.21996 8.5 8.11829 8.5 10.4756 8.5H17.2119C19.5706 8.5 21.469 8.5 22.938 8.69692L22.438 6.8595C22.0257 5.34792 21.8798 4.879 21.6305 4.54325C21.3531 4.1694 20.976 3.88121 20.5425 3.71167C20.2308 3.58983 19.854 3.55442 18.9161 3.5445C18.7148 3.9676 18.3976 4.32498 18.0015 4.57521C17.6053 4.82544 17.1464 4.95828 16.6778 4.95833H11.0111C10.5426 4.95828 10.0836 4.82544 9.68743 4.57521C9.29128 4.32498 8.97414 3.9676 8.77279 3.5445M11.0111 2.125C10.9172 2.125 10.8271 2.16231 10.7607 2.22873C10.6943 2.29515 10.657 2.38524 10.657 2.47917C10.657 2.5731 10.6943 2.66318 10.7607 2.7296C10.8271 2.79602 10.9172 2.83333 11.0111 2.83333H16.6778C16.7717 2.83333 16.8618 2.79602 16.9282 2.7296C16.9946 2.66318 17.032 2.5731 17.032 2.47917C17.032 2.38524 16.9946 2.29515 16.9282 2.22873C16.8618 2.16231 16.7717 2.125 16.6778 2.125H11.0111ZM4.91946 10.8177C3.63029 11.0047 3.00554 11.3447 2.61029 11.8518C2.21363 12.3576 2.03654 13.0447 2.16829 14.3423C2.30288 15.6683 2.73496 17.4023 3.34979 19.8673C3.74363 21.437 4.01563 22.525 4.32729 23.3382C4.62479 24.123 4.91804 24.5381 5.28638 24.8257C5.65329 25.1118 6.12646 25.2946 6.96229 25.3952C7.82646 25.4986 8.94563 25.5 10.5663 25.5H17.1255C18.7447 25.5 19.8667 25.4986 20.7295 25.3952C21.5653 25.296 22.0385 25.1118 22.4054 24.8257C22.7737 24.5381 23.0655 24.123 23.3659 23.3382C23.6747 22.525 23.9481 21.437 24.3405 19.8673C24.9568 17.4023 25.3889 15.6683 25.522 14.3423C25.6552 13.0447 25.4767 12.3562 25.0815 11.8504C24.6862 11.3447 24.0615 11.0047 22.7709 10.8177C21.4534 10.6278 19.6655 10.625 17.1255 10.625H10.5663C8.02621 10.625 6.23838 10.6278 4.92088 10.8177" fill="black"/>
</svg>
