<svg width="28" height="28" viewBox="0 0 28 28" fill="none" xmlns="http://www.w3.org/2000/svg">
<path fill-rule="evenodd" clip-rule="evenodd" d="M18.75 10C18.75 11.3261 18.2232 12.5979 17.2855 13.5355C16.3479 14.4732 15.0761 15 13.75 15C12.4239 15 11.1521 14.4732 10.2145 13.5355C9.27678 12.5979 8.75 11.3261 8.75 10C8.75 8.67392 9.27678 7.40215 10.2145 6.46447C11.1521 5.52678 12.4239 5 13.75 5C15.0761 5 16.3479 5.52678 17.2855 6.46447C18.2232 7.40215 18.75 8.67392 18.75 10ZM16.25 10C16.25 10.663 15.9866 11.2989 15.5178 11.7678C15.0489 12.2366 14.413 12.5 13.75 12.5C13.087 12.5 12.4511 12.2366 11.9822 11.7678C11.5134 11.2989 11.25 10.663 11.25 10C11.25 9.33696 11.5134 8.70107 11.9822 8.23223C12.4511 7.76339 13.087 7.5 13.75 7.5C14.413 7.5 15.0489 7.76339 15.5178 8.23223C15.9866 8.70107 16.25 9.33696 16.25 10Z" fill="black"/>
<path fill-rule="evenodd" clip-rule="evenodd" d="M13.75 0C6.15625 0 0 6.15625 0 13.75C0 21.3437 6.15625 27.5 13.75 27.5C21.3437 27.5 27.5 21.3437 27.5 13.75C27.5 6.15625 21.3437 0 13.75 0ZM2.5 13.75C2.5 16.3625 3.39125 18.7675 4.885 20.6775C5.9343 19.3002 7.28769 18.1839 8.83955 17.4159C10.3914 16.6479 12.0997 16.2489 13.8312 16.25C15.5405 16.248 17.2276 16.6364 18.7639 17.3855C20.3002 18.1346 21.6452 19.2246 22.6962 20.5725C23.7793 19.152 24.5085 17.494 24.8236 15.7357C25.1387 13.9775 25.0305 12.1694 24.5081 10.4612C23.9857 8.75304 23.064 7.19381 21.8194 5.91255C20.5747 4.63128 19.0428 3.66482 17.3505 3.09314C15.6581 2.52145 13.854 2.36096 12.0873 2.62497C10.3207 2.88897 8.64224 3.56986 7.19096 4.61132C5.73968 5.65277 4.55726 7.02484 3.74154 8.61399C2.92581 10.2032 2.50023 11.9637 2.5 13.75ZM13.75 25C11.1674 25.0042 8.66268 24.1157 6.66 22.485C7.46601 21.3308 8.53899 20.3884 9.78759 19.7381C11.0362 19.0878 12.4234 18.7488 13.8312 18.75C15.2215 18.7488 16.5919 19.0793 17.8287 19.7141C19.0655 20.349 20.133 21.2697 20.9425 22.4C18.9243 24.0838 16.3783 25.0041 13.75 25Z" fill="black"/>
</svg>
